<?xml version="1.0" encoding="UTF-8" standalone="no"?>
<!-- Created with Inkscape (http://www.inkscape.org/) -->

<svg
   xmlns:dc="http://purl.org/dc/elements/1.1/"
   xmlns:cc="http://creativecommons.org/ns#"
   xmlns:rdf="http://www.w3.org/1999/02/22-rdf-syntax-ns#"
   xmlns:svg="http://www.w3.org/2000/svg"
   xmlns="http://www.w3.org/2000/svg"
   xmlns:sodipodi="http://sodipodi.sourceforge.net/DTD/sodipodi-0.dtd"
   xmlns:inkscape="http://www.inkscape.org/namespaces/inkscape"
   width="1000mm"
   height="600mm"
   viewBox="0 0 1000 599.99999"
   version="1.1"
   id="svg12924"
   inkscape:version="0.92.2 (5c3e80d, 2017-08-06)"
   sodipodi:docname="foot.svg">
  <sodipodi:namedview
     id="base"
     pagecolor="#ffffff"
     bordercolor="#666666"
     borderopacity="1.0"
     inkscape:pageopacity="0.0"
     inkscape:pageshadow="2"
     inkscape:zoom="0.24748737"
     inkscape:cx="1520.0055"
     inkscape:cy="262.25045"
     inkscape:document-units="mm"
     inkscape:current-layer="g4684"
     showgrid="false"
     inkscape:object-paths="true"
     inkscape:snap-intersection-paths="false"
     inkscape:snap-object-midpoints="true"
     inkscape:object-nodes="true"
     inkscape:window-width="1280"
     inkscape:window-height="977"
     inkscape:window-x="-4"
     inkscape:window-y="-4"
     inkscape:window-maximized="1"
     inkscape:measure-start="500.47,1150.61"
     inkscape:measure-end="752.256,1150.61"
     inkscape:snap-midpoints="true"
     inkscape:snap-smooth-nodes="false"
     inkscape:snap-bbox="true"
     fit-margin-top="1"
     fit-margin-left="1"
     fit-margin-right="1"
     fit-margin-bottom="1" />
  <defs
     id="defs12918" />
  <metadata
     id="metadata12921">
    <rdf:RDF>
      <cc:Work
         rdf:about="">
        <dc:format>image/svg+xml</dc:format>
        <dc:type
           rdf:resource="http://purl.org/dc/dcmitype/StillImage" />
        <dc:title />
      </cc:Work>
    </rdf:RDF>
  </metadata>
  <g
     inkscape:label="Layer 1"
     inkscape:groupmode="layer"
     id="layer1"
     transform="translate(163.31626,321.56221)">
    <g
       id="g13515">
      <g
         id="g4684">
        <g
           style="stroke-width:0.40000001;stroke-miterlimit:4;stroke-dasharray:none"
           id="g13494"
           transform="translate(0.26577039,-397.3342)" />
        <g
           transform="matrix(0.37781613,0,0,0.36692951,-98.346465,-260.19844)"
           style="fill:none;fill-opacity:1;stroke:#000000;stroke-width:2.05988455;stroke-miterlimit:4;stroke-dasharray:none;stroke-opacity:0.9908257"
           id="g6573" />
        <path
           id="path4050"
           style="fill:none;stroke:#008000;stroke-width:0.26458332"
           d=""
           inkscape:connector-curvature="0" />
        <g
           id="g39">
          <path
             style="fill:none;fill-rule:evenodd;stroke:#0000ff;stroke-width:0.39999998;stroke-linecap:butt;stroke-linejoin:miter;stroke-miterlimit:4;stroke-dashoffset:0;stroke-opacity:1"
             d="m -30.900154,274.00446 v -3.20017 m 0,-3.20085 v -3.20048 m 0,-3.20043 v -3.19992 m 0,-3.19947 v -3.19962 m 0,-3.20012 v -3.19978 m 0,-3.2009 v -3.19992 m 0,-3.19985 v -3.20088 m 0,-3.19975 v -3.19914 m 0,-3.20016 v -3.19943 m 0,-3.19904 v -3.19979 m 0,-3.20004 v -3.20097 m 0,-3.20015 v -3.19924 m 0,-3.1994 v -3.20116 m 0,-3.19942 v -2.29159"
             id="path4705"
             inkscape:connector-curvature="0"
             sodipodi:nodetypes="cccccccccccccccccccccccccccc" />
          <path
             style="fill:none;fill-rule:evenodd;stroke:#0000ff;stroke-width:0.39999998;stroke-linecap:butt;stroke-linejoin:miter;stroke-miterlimit:4;stroke-dashoffset:0;stroke-opacity:1"
             d="m 35.71815,274.00446 v -3.20017 m 0,-3.20085 v -3.20048 m 0,-3.20043 v -3.19992 m 0,-3.19947 v -3.19962 m 0,-3.20012 v -3.19978 m 0,-3.2009 v -3.19992 m 0,-3.19985 v -3.20088 m 0,-3.19975 v -3.19914 m 0,-3.20016 v -3.19943 m 0,-3.19904 v -3.19979 m 0,-3.20004 v -3.20097 m 0,-3.20015 v -3.19924 m 0,-3.1994 v -3.20116 m 0,-3.19942 v -2.29159"
             id="path4707"
             inkscape:connector-curvature="0"
             sodipodi:nodetypes="cccccccccccccccccccccccccccc" />
          <path
             d="m -125.29457,149.04011 c 0.0103,0.004 0.0214,0.007 0.0319,0.0106 14.52412,3.90172 38.279033,-0.0822 38.517343,-0.12277 0.169698,-0.0288 0.29546,-0.16776 0.304646,-0.33661 0.0089,-0.16816 -0.0925,-0.31364 -0.265881,-0.37636 -13.504248,-4.28569 -26.490898,-4.24041 -38.598588,0.135 -0.15267,0.0549 -0.24926,0.20096 -0.2398,0.3606 0.009,0.14924 0.10852,0.27847 0.25018,0.33003 z m 42.755608,49.21436 c -27.063528,-5.02557 -45.823688,0.59239 -46.009888,0.64997 -0.16427,0.0503 -0.26981,0.20442 -0.25648,0.37327 0.0119,0.14725 0.11149,0.27252 0.24995,0.32291 0.0206,0.007 0.0419,0.0131 0.0642,0.017 0.45204,0.0814 1.01725,0.19766 1.68998,0.33552 6.2834,1.28929 22.97389,4.71475 44.304603,-0.98208 0.168199,-0.0446 0.280767,-0.19808 0.270346,-0.36939 -0.0098,-0.1707 -0.136683,-0.31488 -0.312648,-0.3473 z m 11.768892,-11.51522 c 0.0022,-0.1761 -0.126963,-0.33165 -0.299832,-0.37036 -35.617398,-7.93314 -67.843508,0.97351 -68.164828,1.06429 -0.17113,0.0482 -0.2818,0.20864 -0.26416,0.38336 0.0145,0.14468 0.11387,0.26597 0.24914,0.3152 0.0277,0.0101 0.0568,0.0175 0.0873,0.0207 35.13113,4.13799 67.757905,-1.00895 68.083405,-1.06151 0.17755,-0.0283 0.306449,-0.17585 0.308979,-0.35182 z m 3.851136,-12.83553 c 0.0098,-0.17488 -0.111397,-0.33574 -0.282238,-0.38113 -34.401928,-9.28422 -72.628228,1.25234 -73.010258,1.35968 -0.16659,0.0468 -0.27641,0.20046 -0.26525,0.37086 0.01,0.14916 0.10986,0.27701 0.2501,0.32806 0.0199,0.007 0.0408,0.0127 0.0624,0.0163 11.58873,2.14841 45.9682,2.02407 72.923927,-1.35558 0.177664,-0.022 0.31219,-0.16401 0.321486,-0.33868 z m -69.008916,-10.24036 c 0.0369,0.0134 0.0766,0.0215 0.11791,0.0229 12.31912,0.47086 60.034965,-1.34893 66.740622,-2.34213 0.175134,-0.0261 0.305484,-0.16878 0.313084,-0.34213 0.007,-0.17394 -0.118877,-0.33066 -0.282909,-0.37708 -20.354386,-5.46498 -37.459147,-4.53548 -48.224427,-2.79335 -11.67558,1.88914 -18.63795,5.12202 -18.70694,5.1547 -0.1548,0.0729 -0.23711,0.24053 -0.19906,0.40666 0.0288,0.12645 0.12246,0.22693 0.24175,0.27035 z"
             style="fill:none;fill-opacity:1;stroke:#008000;stroke-width:0.76696306;stroke-miterlimit:4;stroke-dasharray:none;stroke-opacity:0.9908257"
             id="path4711"
             inkscape:connector-curvature="0" />
          <path
             inkscape:connector-curvature="0"
             id="path4713"
             style="fill:none;fill-opacity:1;stroke:#008000;stroke-width:0.76696306;stroke-miterlimit:4;stroke-dasharray:none;stroke-opacity:0.9908257"
             d="m 76.52303,169.14474 c 0.0102,-0.004 0.0212,-0.008 0.0312,-0.0124 13.6341,-6.34704 29.27059,-24.66827 29.42708,-24.85252 0.11148,-0.13114 0.1185,-0.31843 0.017,-0.45368 -0.10123,-0.13457 -0.27246,-0.18081 -0.4456,-0.11741 -13.09963,5.39734 -23.01888,13.77968 -29.48145,24.91411 -0.0816,0.14023 -0.0618,0.31417 0.0481,0.43038 0.10266,0.10867 0.26213,0.14356 0.40379,0.092 z m 64.38708,10.21761 c -23.96225,13.54629 -34.72221,29.9087 -34.82784,30.0725 -0.0935,0.14413 -0.0753,0.33002 0.0435,0.4508 0.10381,0.10512 0.26057,0.13709 0.39903,0.0867 0.0206,-0.007 0.0405,-0.0169 0.0601,-0.0282 0.39862,-0.22819 0.90631,-0.50246 1.51028,-0.82927 5.64209,-3.05124 20.6296,-11.15563 33.30802,-29.23077 0.10021,-0.14225 0.0878,-0.33221 -0.0303,-0.45674 -0.11723,-0.12445 -0.3071,-0.15336 -0.46274,-0.0651 z m 1.61365,-16.38607 c -0.11154,-0.13629 -0.31044,-0.17244 -0.46775,-0.091 -32.38383,16.81728 -51.34538,44.35471 -51.53318,44.6308 -0.1001,0.14694 -0.0817,0.34097 0.0441,0.46347 0.1041,0.10152 0.25819,0.13055 0.39346,0.0813 0.0277,-0.0101 0.0547,-0.0231 0.0803,-0.0403 29.57185,-19.41198 51.25702,-44.32685 51.47258,-44.57634 0.11785,-0.13579 0.12173,-0.33169 0.0105,-0.46812 z m -5.30038,-12.30804 c -0.1049,-0.14026 -0.30115,-0.18559 -0.4612,-0.11055 -32.32118,15.00101 -54.83145,47.64387 -55.05511,47.97167 -0.0976,0.1429 -0.0829,0.33123 0.0352,0.45459 0.10329,0.10805 0.26222,0.14159 0.40246,0.0905 0.0199,-0.007 0.0394,-0.0165 0.0583,-0.0276 10.25845,-5.80331 36.51473,-27.99726 54.99162,-47.91303 0.12198,-0.13102 0.13373,-0.32631 0.0286,-0.46609 z m -59.44628,36.5135 c 0.0369,-0.0134 0.0725,-0.0328 0.10505,-0.0582 9.73966,-7.55789 45.12238,-39.62308 49.62079,-44.69422 0.11741,-0.13255 0.12552,-0.32566 0.0199,-0.46334 -0.10643,-0.13776 -0.30361,-0.17689 -0.45911,-0.10701 -19.10518,8.89713 -31.61072,20.60389 -38.73758,28.85823 -7.7297,8.95209 -10.98513,15.90394 -11.01697,15.97332 -0.0717,0.15535 -0.027,0.33667 0.10888,0.43949 0.10334,0.0784 0.23968,0.0951 0.35896,0.0517 z" />
          <path
             inkscape:connector-curvature="0"
             id="path4715"
             d="m 50.22299,172.72331 c 0,0 -1.15102,0 -3.200502,0 m -3.199977,0 c -0.974469,0 -2.044996,0 -3.20082,0 m -3.200796,0 c -1.021142,0 -2.089431,0 -3.199605,0 m -3.199653,0 c -1.039478,0 -2.107495,0 -3.200484,0 m -3.200255,0 c -1.049454,0 -2.117264,0 -3.200628,0 m -3.199527,0 c -1.056092,0 -2.123782,0 -3.200663,0 m -3.19965,0 c -1.060621,0 -2.1276752,0 -3.1989616,0 m -3.1999028,0 c -1.0655014,0 -2.1330057,0 -3.2003852,0 m -3.19996401,0 c -1.06944229,0 -2.13661309,0 -3.19935789,0 m -3.1998123,0 c -1.0744971,0 -2.1421051,0 -3.2005262,0 m -3.200325,0 c -1.080038,0 -2.147582,0 -3.200039,0 m -3.200082,0 c -1.087707,0 -2.155165,0 -3.199218,0 m -3.200194,0 c -1.101134,0 -2.169323,0 -3.200242,0 m -3.199259,0 c -1.129091,0 -2.198386,0 -3.200521,0 m -3.199853,0 c -1.240737,0 -2.315044,0 -3.198906,0 m -2.827871,0"
             style="fill:none;fill-rule:evenodd;stroke:#0000ff;stroke-width:0.39999998;stroke-linecap:butt;stroke-linejoin:miter;stroke-miterlimit:4;stroke-dashoffset:0;stroke-opacity:1"
             sodipodi:nodetypes="cc" />
          <path
             sodipodi:nodetypes="ccccccccccc"
             inkscape:connector-curvature="0"
             d="m 161.88052,124.18485 3e-5,103.71238 -126.35085,46.1073 h -66.47524 c 0,0 -66.017184,-24.09774 -126.77396,-46.29244 l 0.0459,-103.3588 126.72936,-46.10722 -0.0014,-104.241697 H 35.52968 L 35.718128,78.07763 Z"
             style="fill:none;fill-rule:evenodd;stroke:#ff0000;stroke-width:0.26458332px;stroke-linecap:butt;stroke-linejoin:miter;stroke-opacity:1"
             id="path2242" />
          <path
             d="m 6.9069166,209.10892 h 3.1750004 v -0.52916 l -0.2645838,-0.52917 -0.2645833,-0.26458 -0.5291666,-0.26459 h -0.79375 l -0.5291667,0.26459 -0.5291667,0.52916 -0.2645833,0.79375 v 0.52917 l 0.2645833,0.79375 0.5291667,0.52917 0.5291667,0.26458 h 0.79375 l 0.5291666,-0.26458 0.5291671,-0.52917 m -7.9375003,-2.91042 v 2.64584 l 0.2645833,0.79375 0.5291666,0.26458 h 0.79375 l 0.5291667,-0.26458 0.79375,-0.79375 m 0,-2.64584 v 3.70417 m -5.02708331,-5.55625 v 5.55625 m -2.11666659,-3.70417 v 4.23334 l -0.2645833,0.79375 -0.2645834,0.26458 -0.5291666,0.26458 h -0.79375 l -0.5291667,-0.26458 m 2.38125,-4.49792 -0.5291667,-0.52916 -0.5291666,-0.26459 h -0.79375 l -0.5291667,0.26459 -0.5291667,0.52916 -0.2645833,0.79375 v 0.52917 l 0.2645833,0.79375 0.5291667,0.52917 0.5291667,0.26458 h 0.79375 l 0.5291666,-0.26458 0.5291667,-0.52917"
             style="fill:none;stroke:#008000;stroke-width:0.26458332"
             id="path3797" />
          <path
             sodipodi:nodetypes="cccccccccccccccccccccccccccccccccccccccccccccccccccccccc"
             inkscape:connector-curvature="0"
             d="m 7.5022291,-9.9492117 h 3.1749999 v -0.5291663 l -0.264583,-0.529167 -0.264584,-0.264583 -0.5291662,-0.264584 h -0.79375 l -0.5291667,0.264584 -0.5291667,0.529166 -0.2645833,0.7937503 v 0.5291667 l 0.2645833,0.79375 0.5291667,0.5291666 0.5291667,0.2645834 h 0.79375 l 0.5291662,-0.2645834 0.529167,-0.5291666 m -7.9374999,-2.910417 v 5.5562503 m 0,-4.7625003 0.5291667,-0.529166 0.5291666,-0.264584 h 0.79375 l 0.5291667,0.264584 0.5291667,0.529166 0.2645833,0.7937503 v 0.5291667 l -0.2645833,0.79375 -0.5291667,0.5291666 -0.5291667,0.2645834 h -0.79375 L 3.2688958,-8.0971284 2.7397291,-8.626295 m -2.11666659,-2.910417 v 3.704167 m 0,-2.910417 -0.52916666,-0.529166 -0.52916666,-0.264584 H -1.2290208 l -0.5291667,0.264584 -0.5291666,0.529166 -0.2645834,0.7937503 v 0.5291667 l 0.2645834,0.79375 0.5291666,0.5291666 0.5291667,0.2645834 h 0.79374999 L 0.09389585,-8.0971284 0.62306251,-8.626295 m -5.82083331,-4.7625 v 4.4979167 l 0.2645833,0.7937499 0.5291667,0.2645834 h 0.5291667 m -2.1166667,-3.704167 h 1.8520833"
             style="fill:none;stroke:#008000;stroke-width:0.26458332"
             id="path4058" />
          <path
             sodipodi:nodetypes="cccccccccccccccccccc"
             style="fill:none;fill-rule:evenodd;stroke:#0000ff;stroke-width:0.39999998;stroke-linecap:butt;stroke-linejoin:miter;stroke-miterlimit:4;stroke-dashoffset:0;stroke-opacity:1"
             d="m 32.809108,24.204445 h -3.200484 m -3.200255,0 h -3.200628 m -3.199527,0 h -3.200663 m -3.19965,0 H 10.40894 m -3.1999029,0 H 4.0086519 m -3.19996395,0 H -2.39067 m -3.1998123,0 h -3.2005265 m -3.2003252,0 h -3.200039 m -3.200082,0 h -3.199218 m -3.200194,0 h -3.200242"
             id="path4192"
             inkscape:connector-curvature="0" />
          <path
             inkscape:connector-curvature="0"
             id="path4214"
             d="m 32.809108,78.321816 h -3.200484 m -3.200255,0 h -3.200628 m -3.199527,0 h -3.200663 m -3.19965,0 H 10.40894 m -3.1999029,0 H 4.0086519 m -3.19996395,0 H -2.39067 m -3.1998123,0 h -3.2005265 m -3.2003252,0 h -3.200039 m -3.200082,0 h -3.199218 m -3.200194,0 h -3.200242"
             style="fill:none;fill-rule:evenodd;stroke:#0000ff;stroke-width:0.39999998;stroke-linecap:butt;stroke-linejoin:miter;stroke-miterlimit:4;stroke-dashoffset:0;stroke-opacity:1"
             sodipodi:nodetypes="cccccccccccccccccccc" />
          <path
             sodipodi:nodetypes="ccssccccccsscc"
             inkscape:connector-curvature="0"
             d="m 35.718124,78.077628 -0.04722,69.645682 c 6.643623,-20.35161 17.780683,-13.20596 21.002673,-5.45776 3.14648,7.56661 -2.98756,18.39497 0.35298,26.61426 0.66475,1.6356 3.64434,3.8435 3.64434,3.8435 H 50.22299 L 35.7654,188.51279 m -66.712801,0 -14.457589,-15.78948 h -10.447918 c 0,0 2.383519,-2.32794 2.929316,-3.8435 3.00829,-8.35338 -2.078469,-19.04765 1.068009,-26.61426 3.221991,-7.7482 14.359044,-14.89385 21.002672,5.45776 l -0.09133,-69.477248"
             style="fill:none;stroke:#0000ff;stroke-width:0.26458332px;stroke-linecap:butt;stroke-linejoin:miter;stroke-opacity:1"
             id="path25" />
        </g>
        <path
           style="fill:none;fill-rule:evenodd;stroke:#0000ff;stroke-width:0.39999998;stroke-linecap:butt;stroke-linejoin:miter;stroke-miterlimit:4;stroke-dashoffset:0;stroke-opacity:1"
           d="m 288.67693,274.00446 v -3.20017 m 0,-3.20085 v -3.20048 m 0,-3.20043 v -3.19992 m 0,-3.19947 v -3.19962 m 0,-3.20012 v -3.19978 m 0,-3.2009 v -3.19992 m 0,-3.19985 v -3.20088 m 0,-3.19975 v -3.19914 m 0,-3.20016 v -3.19943 m 0,-3.19904 v -3.19979 m 0,-3.20004 v -3.20097 m 0,-3.20015 v -3.19924 m 0,-3.1994 v -3.20116 m 0,-3.19942 v -2.29159"
           id="path41"
           inkscape:connector-curvature="0"
           sodipodi:nodetypes="cccccccccccccccccccccccccccc" />
        <path
           style="fill:none;fill-rule:evenodd;stroke:#0000ff;stroke-width:0.39999998;stroke-linecap:butt;stroke-linejoin:miter;stroke-miterlimit:4;stroke-dashoffset:0;stroke-opacity:1"
           d="m 355.29523,274.00446 v -3.20017 m 0,-3.20085 v -3.20048 m 0,-3.20043 v -3.19992 m 0,-3.19947 v -3.19962 m 0,-3.20012 v -3.19978 m 0,-3.2009 v -3.19992 m 0,-3.19985 v -3.20088 m 0,-3.19975 v -3.19914 m 0,-3.20016 v -3.19943 m 0,-3.19904 v -3.19979 m 0,-3.20004 v -3.20097 m 0,-3.20015 v -3.19924 m 0,-3.1994 v -3.20116 m 0,-3.19942 v -2.29159"
           id="path43"
           inkscape:connector-curvature="0"
           sodipodi:nodetypes="cccccccccccccccccccccccccccc" />
        <path
           d="m 194.28251,149.04011 c 0.0103,0.004 0.0214,0.007 0.0319,0.0106 14.52412,3.90172 38.27903,-0.0822 38.51734,-0.12277 0.1697,-0.0288 0.29546,-0.16776 0.30465,-0.33661 0.009,-0.16816 -0.0925,-0.31364 -0.26588,-0.37636 -13.50425,-4.28569 -26.4909,-4.24041 -38.59859,0.135 -0.15267,0.0549 -0.24926,0.20096 -0.2398,0.3606 0.009,0.14924 0.10852,0.27847 0.25018,0.33003 z m 42.75561,49.21436 c -27.06353,-5.02557 -45.82369,0.59239 -46.00989,0.64997 -0.16427,0.0503 -0.26981,0.20442 -0.25648,0.37327 0.0119,0.14725 0.11149,0.27252 0.24995,0.32291 0.0206,0.007 0.0419,0.0131 0.0642,0.017 0.45204,0.0814 1.01725,0.19766 1.68998,0.33552 6.2834,1.28929 22.97389,4.71475 44.3046,-0.98208 0.1682,-0.0446 0.28077,-0.19808 0.27035,-0.36939 -0.01,-0.1707 -0.13668,-0.31488 -0.31265,-0.3473 z m 11.76889,-11.51522 c 0.002,-0.1761 -0.12696,-0.33165 -0.29983,-0.37036 -35.6174,-7.93314 -67.84351,0.97351 -68.16483,1.06429 -0.17113,0.0482 -0.2818,0.20864 -0.26416,0.38336 0.0145,0.14468 0.11387,0.26597 0.24914,0.3152 0.0277,0.0101 0.0568,0.0175 0.0873,0.0207 35.13113,4.13799 67.75791,-1.00895 68.08341,-1.06151 0.17755,-0.0283 0.30644,-0.17585 0.30897,-0.35182 z m 3.85114,-12.83553 c 0.01,-0.17488 -0.1114,-0.33574 -0.28224,-0.38113 -34.40193,-9.28422 -72.62823,1.25234 -73.01026,1.35968 -0.16659,0.0468 -0.27641,0.20046 -0.26525,0.37086 0.01,0.14916 0.10986,0.27701 0.2501,0.32806 0.0199,0.007 0.0408,0.0127 0.0624,0.0163 11.58873,2.14841 45.9682,2.02407 72.92393,-1.35558 0.17766,-0.022 0.31219,-0.16401 0.32148,-0.33868 z m -69.00892,-10.24036 c 0.0369,0.0134 0.0766,0.0215 0.11791,0.0229 12.31912,0.47086 60.03497,-1.34893 66.74062,-2.34213 0.17514,-0.0261 0.30549,-0.16878 0.31309,-0.34213 0.007,-0.17394 -0.11888,-0.33066 -0.28291,-0.37708 -20.35439,-5.46498 -37.45915,-4.53548 -48.22443,-2.79335 -11.67558,1.88914 -18.63795,5.12202 -18.70694,5.1547 -0.1548,0.0729 -0.23711,0.24053 -0.19906,0.40666 0.0288,0.12645 0.12246,0.22693 0.24175,0.27035 z"
           style="fill:none;fill-opacity:1;stroke:#008000;stroke-width:0.76696306;stroke-miterlimit:4;stroke-dasharray:none;stroke-opacity:0.9908257"
           id="path45"
           inkscape:connector-curvature="0" />
        <path
           inkscape:connector-curvature="0"
           id="path47"
           style="fill:none;fill-opacity:1;stroke:#008000;stroke-width:0.76696306;stroke-miterlimit:4;stroke-dasharray:none;stroke-opacity:0.9908257"
           d="m 396.10011,169.14474 c 0.0102,-0.004 0.0212,-0.008 0.0312,-0.0124 13.6341,-6.34704 29.27059,-24.66827 29.42708,-24.85252 0.11148,-0.13114 0.1185,-0.31843 0.017,-0.45368 -0.10123,-0.13457 -0.27246,-0.18081 -0.4456,-0.11741 -13.09963,5.39734 -23.01888,13.77968 -29.48145,24.91411 -0.0816,0.14023 -0.0618,0.31417 0.0481,0.43038 0.10266,0.10867 0.26213,0.14356 0.40379,0.092 z m 64.38708,10.21761 c -23.96225,13.54629 -34.72221,29.9087 -34.82784,30.0725 -0.0935,0.14413 -0.0753,0.33002 0.0435,0.4508 0.10381,0.10512 0.26057,0.13709 0.39903,0.0867 0.0206,-0.007 0.0405,-0.0169 0.0601,-0.0282 0.39862,-0.22819 0.90631,-0.50246 1.51028,-0.82927 5.64209,-3.05124 20.6296,-11.15563 33.30802,-29.23077 0.10021,-0.14225 0.0878,-0.33221 -0.0303,-0.45674 -0.11723,-0.12445 -0.3071,-0.15336 -0.46274,-0.0651 z m 1.61365,-16.38607 c -0.11154,-0.13629 -0.31044,-0.17244 -0.46775,-0.091 -32.38383,16.81728 -51.34538,44.35471 -51.53318,44.6308 -0.1001,0.14694 -0.0817,0.34097 0.0441,0.46347 0.1041,0.10152 0.25819,0.13055 0.39346,0.0813 0.0277,-0.0101 0.0547,-0.0231 0.0803,-0.0403 29.57185,-19.41198 51.25702,-44.32685 51.47258,-44.57634 0.11785,-0.13579 0.12173,-0.33169 0.0105,-0.46812 z m -5.30038,-12.30804 c -0.1049,-0.14026 -0.30115,-0.18559 -0.4612,-0.11055 -32.32118,15.00101 -54.83145,47.64387 -55.05511,47.97167 -0.0976,0.1429 -0.0829,0.33123 0.0352,0.45459 0.10329,0.10805 0.26222,0.14159 0.40246,0.0905 0.0199,-0.007 0.0394,-0.0165 0.0583,-0.0276 10.25845,-5.80331 36.51473,-27.99726 54.99162,-47.91303 0.12198,-0.13102 0.13373,-0.32631 0.0286,-0.46609 z m -59.44628,36.5135 c 0.0369,-0.0134 0.0725,-0.0328 0.10505,-0.0582 9.73966,-7.55789 45.12238,-39.62308 49.62079,-44.69422 0.11741,-0.13255 0.12552,-0.32566 0.0199,-0.46334 -0.10643,-0.13776 -0.30361,-0.17689 -0.45911,-0.10701 -19.10518,8.89713 -31.61072,20.60389 -38.73758,28.85823 -7.7297,8.95209 -10.98513,15.90394 -11.01697,15.97332 -0.0717,0.15535 -0.027,0.33667 0.10888,0.43949 0.10334,0.0784 0.23968,0.0951 0.35896,0.0517 z" />
        <path
           inkscape:connector-curvature="0"
           id="path49"
           d="m 369.80007,172.72331 c 0,0 -1.15102,0 -3.2005,0 m -3.19998,0 c -0.97447,0 -2.04499,0 -3.20082,0 m -3.20079,0 c -1.02115,0 -2.08944,0 -3.19961,0 m -3.19965,0 c -1.03948,0 -2.1075,0 -3.20049,0 m -3.20025,0 c -1.04946,0 -2.11727,0 -3.20063,0 m -3.19953,0 c -1.05609,0 -2.12378,0 -3.20066,0 m -3.19965,0 c -1.06062,0 -2.12768,0 -3.19896,0 m -3.1999,0 c -1.06551,0 -2.13301,0 -3.20039,0 m -3.19996,0 c -1.06945,0 -2.13662,0 -3.19936,0 m -3.19981,0 c -1.0745,0 -2.14211,0 -3.20053,0 m -3.20032,0 c -1.08004,0 -2.14759,0 -3.20004,0 m -3.20009,0 c -1.0877,0 -2.15516,0 -3.19921,0 m -3.2002,0 c -1.10113,0 -2.16932,0 -3.20024,0 m -3.19926,0 c -1.12909,0 -2.19838,0 -3.20052,0 m -3.19985,0 c -1.24074,0 -2.31505,0 -3.19891,0 m -2.82787,0"
           style="fill:none;fill-rule:evenodd;stroke:#0000ff;stroke-width:0.39999998;stroke-linecap:butt;stroke-linejoin:miter;stroke-miterlimit:4;stroke-dashoffset:0;stroke-opacity:1"
           sodipodi:nodetypes="cc" />
        <path
           sodipodi:nodetypes="cccccccccc"
           inkscape:connector-curvature="0"
           d="m 161.90348,124.35329 126.72936,-46.10722 -0.001,-104.241697 h 66.47532 l 0.18845,104.073257 126.16239,46.10722 3e-5,103.71238 -126.35085,46.1073 h -66.47524 c 0,0 -66.01718,-24.09774 -126.77396,-46.29244"
           style="fill:none;fill-rule:evenodd;stroke:#ff0000;stroke-width:0.26458332px;stroke-linecap:butt;stroke-linejoin:miter;stroke-opacity:1"
           id="path51" />
        <path
           inkscape:connector-curvature="0"
           d="m 326.484,209.10892 h 3.175 v -0.52916 l -0.26459,-0.52917 -0.26458,-0.26458 -0.52917,-0.26459 h -0.79375 l -0.52916,0.26459 -0.52917,0.52916 -0.26458,0.79375 v 0.52917 l 0.26458,0.79375 0.52917,0.52917 0.52916,0.26458 h 0.79375 l 0.52917,-0.26458 0.52917,-0.52917 m -7.9375,-2.91042 v 2.64584 l 0.26458,0.79375 0.52917,0.26458 h 0.79375 l 0.52916,-0.26458 0.79375,-0.79375 m 0,-2.64584 v 3.70417 m -5.02708,-5.55625 v 5.55625 m -2.11667,-3.70417 v 4.23334 l -0.26458,0.79375 -0.26458,0.26458 -0.52917,0.26458 h -0.79375 l -0.52917,-0.26458 m 2.38125,-4.49792 -0.52916,-0.52916 -0.52917,-0.26459 h -0.79375 l -0.52917,0.26459 -0.52916,0.52916 -0.26459,0.79375 v 0.52917 l 0.26459,0.79375 0.52916,0.52917 0.52917,0.26458 h 0.79375 l 0.52917,-0.26458 0.52916,-0.52917"
           style="fill:none;stroke:#008000;stroke-width:0.26458332"
           id="path53" />
        <path
           sodipodi:nodetypes="cccccccccccccccccccccccccccccccccccccccccccccccccccccccc"
           inkscape:connector-curvature="0"
           d="m 327.07931,-9.9492117 h 3.175 v -0.5291663 l -0.26458,-0.529167 -0.26459,-0.264583 -0.52916,-0.264584 h -0.79375 l -0.52917,0.264584 -0.52917,0.529166 -0.26458,0.7937503 v 0.5291667 l 0.26458,0.79375 0.52917,0.5291666 0.52917,0.2645834 h 0.79375 l 0.52916,-0.2645834 0.52917,-0.5291666 m -7.9375,-2.910417 v 5.5562503 m 0,-4.7625003 0.52917,-0.529166 0.52916,-0.264584 h 0.79375 l 0.52917,0.264584 0.52917,0.529166 0.26458,0.7937503 v 0.5291667 l -0.26458,0.79375 -0.52917,0.5291666 -0.52917,0.2645834 h -0.79375 l -0.52916,-0.2645834 -0.52917,-0.5291666 m -2.11667,-2.910417 v 3.704167 m 0,-2.910417 -0.52916,-0.529166 -0.52917,-0.264584 h -0.79375 l -0.52917,0.264584 -0.52916,0.529166 -0.26459,0.7937503 v 0.5291667 l 0.26459,0.79375 0.52916,0.5291666 0.52917,0.2645834 h 0.79375 l 0.52917,-0.2645834 0.52916,-0.5291666 m -5.82083,-4.7625 v 4.4979167 l 0.26458,0.7937499 0.52917,0.2645834 h 0.52917 m -2.11667,-3.704167 h 1.85208"
           style="fill:none;stroke:#008000;stroke-width:0.26458332"
           id="path55" />
        <path
           sodipodi:nodetypes="cccccccccccccccccccc"
           style="fill:none;fill-rule:evenodd;stroke:#0000ff;stroke-width:0.39999998;stroke-linecap:butt;stroke-linejoin:miter;stroke-miterlimit:4;stroke-dashoffset:0;stroke-opacity:1"
           d="m 352.38619,24.204445 h -3.20049 m -3.20025,0 h -3.20063 m -3.19953,0 h -3.20066 m -3.19965,0 h -3.19896 m -3.1999,0 h -3.20039 m -3.19996,0 h -3.19936 m -3.19981,0 h -3.20053 m -3.20032,0 h -3.20004 m -3.20008,0 h -3.19922 m -3.2002,0 h -3.20024"
           id="path57"
           inkscape:connector-curvature="0" />
        <path
           inkscape:connector-curvature="0"
           id="path59"
           d="m 352.38619,78.321816 h -3.20049 m -3.20025,0 h -3.20063 m -3.19953,0 h -3.20066 m -3.19965,0 h -3.19896 m -3.1999,0 h -3.20039 m -3.19996,0 h -3.19936 m -3.19981,0 h -3.20053 m -3.20032,0 h -3.20004 m -3.20008,0 h -3.19922 m -3.2002,0 h -3.20024"
           style="fill:none;fill-rule:evenodd;stroke:#0000ff;stroke-width:0.39999998;stroke-linecap:butt;stroke-linejoin:miter;stroke-miterlimit:4;stroke-dashoffset:0;stroke-opacity:1"
           sodipodi:nodetypes="cccccccccccccccccccc" />
        <path
           sodipodi:nodetypes="ccssccccccsscc"
           inkscape:connector-curvature="0"
           d="m 355.2952,78.077628 -0.0472,69.645682 c 6.64363,-20.35161 17.78069,-13.20596 21.00268,-5.45776 3.14648,7.56661 -2.98756,18.39497 0.35298,26.61426 0.66475,1.6356 3.64434,3.8435 3.64434,3.8435 h -10.44791 l -14.45759,15.78948 m -66.7128,0 -14.45759,-15.78948 h -10.44792 c 0,0 2.38352,-2.32794 2.92932,-3.8435 3.00829,-8.35338 -2.07847,-19.04765 1.06801,-26.61426 3.22199,-7.7482 14.35904,-14.89385 21.00267,5.45776 l -0.0913,-69.477248"
           style="fill:none;stroke:#0000ff;stroke-width:0.26458332px;stroke-linecap:butt;stroke-linejoin:miter;stroke-opacity:1"
           id="path61" />
      </g>
    </g>
  </g>
</svg>
